<?xml version="1.0" encoding="utf-8"?>
<!-- Generator: Adobe Illustrator 27.3.1, SVG Export Plug-In . SVG Version: 6.00 Build 0)  -->
<svg version="1.1" id="Layer_1" xmlns="http://www.w3.org/2000/svg" xmlns:xlink="http://www.w3.org/1999/xlink" x="0px" y="0px"
	 viewBox="0 0 15.019 35.241" style="enable-background:new 0 0 15.019 35.241;" xml:space="preserve">
<style type="text/css">
	.st0{fill-rule:evenodd;clip-rule:evenodd;fill:#F6DFA4;}
</style>
<path id="Fill-1" class="st0" d="M13.645,11.605H7.512v1.3h5.856L10.31,26.39h-2.8v1.31h2.5l-1.17,5.17
	c-0.123,0.634-0.688,1.085-1.333,1.065l0,0c-0.644,0.019-1.208-0.431-1.333-1.063L3.311,20.3h4.2V19h-4.5l-1.575-6.906
	c-0.38-1.683,0.066-3.445,1.2-4.745L2.75,7.214C3.776,6.04,5.26,5.366,6.819,5.367h1.506c2.973-0.004,5.386,2.403,5.39,5.376
	c0,0.289-0.023,0.578-0.069,0.864 M8.746,4.084l2.729-2.8l-0.933-0.91l-2.38,2.441V0H6.858v2.814l-2.38-2.441l-0.933,0.91
	L6.277,4.09c-1.742,0.136-3.361,0.949-4.51,2.265L1.65,6.49c-1.406,1.615-1.958,3.804-1.484,5.893l4.735,20.78
	c0.26,1.224,1.349,2.094,2.6,2.078l0,0c1.254,0.017,2.345-0.854,2.606-2.08l4.743-20.918c0.821-3.6-1.432-7.184-5.032-8.005
	C9.464,4.157,9.105,4.105,8.742,4.083"/>
</svg>
