<?xml version="1.0" encoding="utf-8"?>
<!-- Generator: Adobe Illustrator 24.3.0, SVG Export Plug-In . SVG Version: 6.00 Build 0)  -->
<svg version="1.1" id="Layer_1" xmlns="http://www.w3.org/2000/svg" xmlns:xlink="http://www.w3.org/1999/xlink" x="0px" y="0px"
	 viewBox="0 0 35.709 35.707" style="enable-background:new 0 0 35.709 35.707;" xml:space="preserve">
<style type="text/css">
	.st0{fill-rule:evenodd;clip-rule:evenodd;fill:#673918;}
</style>
<path id="Fill-8" class="st0" d="M34.4,3.929c-0.002-1.447-1.173-2.619-2.62-2.622H3.932C2.483,1.306,1.308,2.48,1.307,3.929V31.78
	c0.004,1.447,1.178,2.619,2.625,2.62H31.78c1.445-0.005,2.615-1.175,2.62-2.62V3.929z M35.705,3.929V31.78
	c-0.002,2.169-1.76,3.926-3.929,3.927H3.932C1.763,35.706,0.003,33.949,0,31.78V3.929C0.004,1.76,1.763,0.003,3.932,0H31.78
	c2.169,0.003,3.926,1.76,3.929,3.929H35.705z M29.22,6.876c-0.001-0.447-0.364-0.808-0.811-0.807
	c-0.447,0.001-0.808,0.364-0.807,0.811c0.001,0.446,0.363,0.807,0.809,0.807c0.447,0,0.809-0.362,0.809-0.809
	C29.22,6.877,29.22,6.877,29.22,6.876z M30.201,6.876c-0.002,0.314-0.087,0.621-0.247,0.891l0,0l-1.941,3.543h-1.18l1.52-2.652
	c-0.986-0.034-1.758-0.86-1.724-1.846s0.86-1.758,1.846-1.724C29.438,5.121,30.202,5.912,30.201,6.876L30.201,6.876z M23.869,7.756
	l-2.983,3.554h4.407v-0.976h-2.311l1.63-1.943c0.3-0.34,0.465-0.778,0.464-1.232V6.91c0-1.033-0.838-1.87-1.871-1.869
	c-1.032,0-1.869,0.837-1.869,1.869V7.2h0.981V6.91c0-0.491,0.398-0.889,0.889-0.889c0.491,0,0.889,0.398,0.889,0.889
	c0,0,0,0,0,0.001v0.249c0.001,0.221-0.08,0.435-0.226,0.6L23.869,7.756z M28.312,25.03c0,1.537-1.246,2.783-2.783,2.783
	c-1.537,0-2.783-1.246-2.783-2.783c0,0,0,0,0-0.001v-5.221h-1.3v5.221c0,2.257,1.83,4.087,4.087,4.087s4.087-1.83,4.087-4.087
	v-5.221h-1.308V25.03z M18,26.248l0.809,1.024c-1.458,1.16-3.269,1.788-5.132,1.781c-4.574-0.003-8.279-3.714-8.276-8.288
	s3.714-8.279,8.288-8.276c1.645,0.001,3.253,0.492,4.618,1.411l-0.729,1.083c-3.196-2.151-7.53-1.304-9.681,1.892
	s-1.304,7.53,1.892,9.681C12.302,28.247,15.62,28.123,18,26.248z"/>
</svg>
