<?xml version="1.0" encoding="utf-8"?>
<!-- Generator: Adobe Illustrator 27.3.1, SVG Export Plug-In . SVG Version: 6.00 Build 0)  -->
<svg version="1.1" id="Layer_1" xmlns="http://www.w3.org/2000/svg" xmlns:xlink="http://www.w3.org/1999/xlink" x="0px" y="0px"
	 viewBox="0 0 27.775 27.789" style="enable-background:new 0 0 27.775 27.789;" xml:space="preserve">
<style type="text/css">
	.st0{fill-rule:evenodd;clip-rule:evenodd;fill:#F6DFA4;}
</style>
<path id="Fill-3" class="st0" d="M1.305,8.233l-0.001-6.91l7.13,0.083c8.284,0.097,14.92,6.891,14.823,15.175
	c-0.012,1.013-0.126,2.022-0.342,3.012l-0.428,1.983l-3.346-3.346l-0.061-4.748L17.775,13.5l0.043,3.409l-2.867-2.867L14.89,9.294
	l-1.305,0.018l0.045,3.411l-3.052-3.052l-0.061-4.748L9.214,4.941L9.257,8.35L5.554,4.647L4.632,5.568l3.703,3.703L4.926,9.228
	l-0.018,1.305l4.748,0.061l3.047,3.047l-3.411-0.045L9.274,14.9l4.748,0.061l2.869,2.869l-3.409-0.043l-0.018,1.305l4.748,0.061
	l3.33,3.33l-2.3,0.461c-8.124,1.621-16.025-3.65-17.647-11.774C1.402,10.203,1.305,9.219,1.305,8.233 M19.503,24.221l3.152-0.629
	l4.197,4.197l0.923-0.923l-4.193-4.193l0.609-2.798c1.915-8.8-3.667-17.485-12.467-19.4C10.648,0.241,9.55,0.116,8.449,0.103
	L0.001,0L0,8.232c-0.005,9.002,7.288,16.304,16.29,16.31c1.08,0.001,2.157-0.106,3.215-0.318"/>
</svg>
