<?xml version="1.0" encoding="utf-8"?>
<!-- Generator: Adobe Illustrator 24.3.0, SVG Export Plug-In . SVG Version: 6.00 Build 0)  -->
<svg version="1.1" id="Layer_1" xmlns="http://www.w3.org/2000/svg" xmlns:xlink="http://www.w3.org/1999/xlink" x="0px" y="0px"
	 viewBox="0 0 22.097 36.547" style="enable-background:new 0 0 22.097 36.547;" xml:space="preserve">
<style type="text/css">
	.st0{fill-rule:evenodd;clip-rule:evenodd;fill:#673918;}
</style>
<path id="Fill-11" class="st0" d="M6.94,14.037l3.971,2.88l3.975-2.88H6.94z M0.202,20.054c-0.507-2.533-0.05-5.165,1.282-7.379
	V12.65h0.018c0.436-0.722,0.957-1.388,1.554-1.984l1.081-1.081c1.187-1.19,1.187-3.117,0-4.307C3.319,4.463,2.862,3.354,2.867,2.2V0
	h1.305v2.188c0.002,1.695,1.375,3.069,3.07,3.072C8.063,5.263,8.85,4.934,9.425,4.348l0.928,0.917
	C9.277,6.358,7.705,6.804,6.216,6.438c0.346,1.464-0.09,3.003-1.152,4.069L3.981,11.59c-0.326,0.331-0.627,0.686-0.9,1.061h15.935
	c-0.27-0.376-0.569-0.731-0.894-1.061l-1.083-1.083c-1.061-1.066-1.496-2.603-1.152-4.067c-0.335,0.081-0.679,0.122-1.024,0.123
	c-1.17,0.003-2.291-0.465-3.111-1.3l0.93-0.917c0.574,0.586,1.361,0.915,2.181,0.912c1.441-0.003,2.686-1.007,2.994-2.414
	c0.006-0.013,0.011-0.027,0.014-0.041c0.009-0.046,0.007-0.094,0.016-0.142c0.027-0.152,0.042-0.305,0.046-0.459V0h1.3v2.188l0,0
	c-0.002,0.238-0.023,0.476-0.064,0.711c-0.009,0.055-0.014,0.114-0.025,0.169c0,0,0,0.011,0,0.016
	c-0.17,0.832-0.581,1.595-1.182,2.194c-1.187,1.19-1.187,3.117,0,4.307l1.083,1.081c2.467,2.462,3.536,5.996,2.848,9.413
	l-2.904,16.467h-1.328l2.951-16.71c0.398-1.995,0.116-4.065-0.8-5.881h-2.59L11.64,18l3.609,18.536l-0.059,0.011h-1.267
	l-3.012-15.462L7.902,36.546H6.634l-0.059-0.011L10.184,18l-5.582-4.045H2.291c-0.915,1.81-1.197,3.876-0.8,5.865l2.674,16.725
	H2.839L0.202,20.054z M10.225,9.37c0-0.442,0.358-0.8,0.8-0.8c0.442,0,0.8,0.358,0.8,0.8s-0.358,0.8-0.8,0.8l0,0
	C10.583,10.17,10.225,9.812,10.225,9.37z"/>
</svg>
