<?xml version="1.0" encoding="utf-8"?>
<!-- Generator: Adobe Illustrator 27.3.1, SVG Export Plug-In . SVG Version: 6.00 Build 0)  -->
<svg version="1.1" id="Layer_1" xmlns="http://www.w3.org/2000/svg" xmlns:xlink="http://www.w3.org/1999/xlink" x="0px" y="0px"
	 viewBox="0 0 26.534 32.367" style="enable-background:new 0 0 26.534 32.367;" xml:space="preserve">
<style type="text/css">
	.st0{fill-rule:evenodd;clip-rule:evenodd;fill:#F6DFA4;}
</style>
<g>
	<path id="Fill-1" class="st0" d="M6.794,27.417H5.67c0-10.706,0-13.584,4.861-16.977c3.612-2.519,3.065-4.685,3.039-4.776l1.08-0.3
		c0.035,0.117,0.845,2.961-3.465,5.968c-4.257,2.971-4.39,5.129-4.39,16.089"/>
	<path id="Fill-3" class="st0" d="M13.265,23.313l-0.129-0.03c-4.123-0.948-6.1-4.449-6.913-6.452l1.045-0.4
		c0.722,1.783,2.459,4.881,6,5.76c5.021-1.246,6.421-6.989,6.431-7.047l0.076-0.309l0.31-0.091c0.792-0.294,1.3-1.07,1.254-1.913
		c0-0.315,0-1.275-1.721-1.656c-1.887-0.451-3.332-1.971-3.687-3.879l1.108-0.173c0.279,1.462,1.384,2.628,2.829,2.985
		c1.674,0.369,2.594,1.337,2.594,2.719c0.031,1.211-0.655,2.326-1.749,2.844c-0.367,1.293-2.149,6.424-7.321,7.612L13.265,23.313z"
		/>
	<g id="Group-7" transform="translate(0 21.82)">
		<path id="Fill-5" class="st0" d="M1.124,10.542H0c0-1.761,1.3-4.9,6.164-5.486c4.107-0.5,4.136-4.881,4.136-5.067h1.125
			c0.006,1.907-1.054,5.654-5.125,6.146c-4.088,0.5-5.178,3-5.178,4.4"/>
	</g>
	<path id="Fill-8" class="st0" d="M26.533,32.362h-1.124c0-1.4-1.09-3.909-5.178-4.4c-4.072-0.494-5.129-4.24-5.119-6.154
		l1.125,0.006c0,0.184,0.039,4.57,4.133,5.067c4.864,0.589,6.164,3.725,6.164,5.486"/>
	<path id="Fill-10" class="st0" d="M23.029,28.072l-1.063-0.349c0.041-0.119,4.094-12.094,0.171-19.994
		c-1.042-2.337-2.763-4.307-4.939-5.652c-2.41-1.314-5.321-1.316-7.733-0.006C7.283,3.415,5.558,5.387,4.516,7.729
		c-3.929,7.905,0.129,19.875,0.171,19.994l-1.065,0.349C3.446,27.564-0.621,15.557,3.504,7.257C4.642,4.719,6.52,2.585,8.892,1.133
		c2.764-1.51,6.106-1.51,8.87,0c2.371,1.453,4.25,3.587,5.39,6.124C27.273,15.557,23.205,27.564,23.029,28.072"/>
	<path id="Fill-12" class="st0" d="M13.112,30.656c-3.843,0-7.735-1-7.735-2.91c0.001-0.168,0.033-0.334,0.094-0.49l1.051,0.381
		c-0.02,0.833,2.616,1.926,6.59,1.926s6.609-1.093,6.609-1.817l0.988-0.591c0.09,0.184,0.137,0.386,0.137,0.591
		c0,1.91-3.89,2.91-7.733,2.91"/>
</g>
</svg>
