<?xml version="1.0" encoding="utf-8"?>
<!-- Generator: Adobe Illustrator 24.3.0, SVG Export Plug-In . SVG Version: 6.00 Build 0)  -->
<svg version="1.1" id="Layer_1" xmlns="http://www.w3.org/2000/svg" xmlns:xlink="http://www.w3.org/1999/xlink" x="0px" y="0px"
	 viewBox="0 0 26.314 34.848" style="enable-background:new 0 0 26.314 34.848;" xml:space="preserve">
<style type="text/css">
	.st0{fill-rule:evenodd;clip-rule:evenodd;fill:#673918;}
</style>
<path id="Fill-5" class="st0" d="M15.267,19.473c0-0.442,0.358-0.8,0.8-0.8s0.8,0.358,0.8,0.8s-0.358,0.8-0.8,0.8h0
	C15.625,20.273,15.267,19.915,15.267,19.473z M10.667,16.236c0-0.442,0.358-0.8,0.8-0.8s0.8,0.358,0.8,0.8s-0.358,0.8-0.8,0.8h0
	C11.025,17.036,10.667,16.678,10.667,16.236z M13.161,11.852c0-0.442,0.358-0.8,0.8-0.8c0.442,0,0.8,0.358,0.8,0.8
	s-0.358,0.8-0.8,0.8l0,0C13.519,12.652,13.161,12.294,13.161,11.852z M25.009,29.206c-0.003,2.393-1.943,4.332-4.336,4.334h-5.591
	c2.979-1.14,5.636-2.987,7.742-5.383l1.431-1.632l0.325,0.677c0.282,0.586,0.429,1.227,0.43,1.877L25.009,29.206z M5.643,33.54
	c-2.395-0.002-4.335-1.946-4.333-4.341c0.001-0.668,0.155-1.326,0.452-1.924l3.282-6.6l2.05,1.82c4.35,3.85,10.87,3.91,15.29,0.142
	l1.255,2.61l-1.8,2.048c-3.484,3.97-8.509,6.246-13.791,6.245H5.643z M6.816,17.121c2.435-4.922,3.75-10.323,3.849-15.814h5.337
	c0.099,5.493,1.378,10.9,3.75,15.855l2.044,4.254c-3.911,3.556-9.872,3.599-13.834,0.1l-2.316-2.05L6.816,17.121z M20.929,16.6
	c-2.287-4.779-3.521-9.993-3.618-15.29h2.1V0h-12.5v1.307h2.453c-0.1,5.29-1.369,10.492-3.718,15.233L0.594,26.694
	c-1.39,2.787-0.257,6.172,2.529,7.561c0.783,0.39,1.645,0.593,2.52,0.593h15.03c3.114-0.004,5.637-2.527,5.641-5.641v-0.128
	c-0.002-0.846-0.193-1.681-0.558-2.444L20.929,16.6z"/>
</svg>
