<?xml version="1.0" encoding="utf-8"?>
<!-- Generator: Adobe Illustrator 27.3.1, SVG Export Plug-In . SVG Version: 6.00 Build 0)  -->
<svg version="1.1" id="Layer_1" xmlns="http://www.w3.org/2000/svg" xmlns:xlink="http://www.w3.org/1999/xlink" x="0px" y="0px"
	 viewBox="0 0 59 60.3" style="enable-background:new 0 0 59 60.3;" xml:space="preserve">
<style type="text/css">
	.st0{fill:none;stroke:#FFFFFF;stroke-width:3;}
	.st1{fill-rule:evenodd;clip-rule:evenodd;fill:#FFFFFF;}
</style>
<path class="st0" d="M29.2,58.4L2.1,33.5l12.8-14.3h29.4l12.8,14.3L29.2,58.4z"/>
<path class="st0" d="M2.9,33.5L17.2,38H42l15.1-4.5"/>
<path class="st0" d="M30,57.6L16.5,38l-1.5-18.1"/>
<path class="st0" d="M29.2,57.6L42.8,38l1.5-18.9"/>
<path class="st1" d="M30.9,1.1v7.3c0,0.5-0.4,0.9-0.9,0.9c-0.5,0-0.9-0.4-0.9-0.9V1.1c0-0.5,0.4-0.9,0.9-0.9
	C30.5,0.2,30.9,0.6,30.9,1.1z"/>
<path class="st1" d="M54.3,8.9L49.1,14c-0.4,0.4-0.9,0.4-1.3,0c-0.4-0.4-0.4-0.9,0-1.3L53,7.6c0.4-0.4,0.9-0.4,1.3,0
	C54.6,7.9,54.6,8.5,54.3,8.9z"/>
<path class="st1" d="M4.2,8.9L9.4,14c0.4,0.4,0.9,0.4,1.3,0c0.4-0.4,0.4-0.9,0-1.3L5.5,7.6c-0.4-0.4-0.9-0.4-1.3,0
	C3.9,7.9,3.9,8.5,4.2,8.9z"/>
</svg>
