<svg xmlns="http://www.w3.org/2000/svg" xmlns:xlink="http://www.w3.org/1999/xlink" width="134.907" height="196.164" viewBox="0 0 134.907 196.164">
  <defs>
    <clipPath id="clip-path">
      <rect id="Rectangle_375" data-name="Rectangle 375" width="25.024" height="25.024" fill="none" stroke="#673918" stroke-width="2"/>
    </clipPath>
    <clipPath id="clip-path-2">
      <rect id="Rectangle_375-2" data-name="Rectangle 375" width="46.737" height="46.737" fill="none" stroke="#673918" stroke-width="2"/>
    </clipPath>
    <clipPath id="clip-path-3">
      <rect id="Rectangle_367" data-name="Rectangle 367" width="76.561" height="76.561" fill="none" stroke="#673918" stroke-width="2"/>
    </clipPath>
  </defs>
  <g id="Group_745" data-name="Group 745" transform="translate(0 71.912)">
    <g id="Group_608" data-name="Group 608" transform="translate(0 0.332)">
      <path id="Path_3352" data-name="Path 3352" d="M27.6,5.651a5.319,5.319,0,0,1,10.638,0V47.514" transform="translate(-13.361 -0.332)" fill="none" stroke="#673918" stroke-miterlimit="10" stroke-width="2"/>
      <path id="Path_3353" data-name="Path 3353" d="M73.325,5.651a5.319,5.319,0,1,1,10.638,0V50.967" transform="translate(-35.494 -0.332)" fill="none" stroke="#673918" stroke-miterlimit="10" stroke-width="2"/>
      <line id="Line_94" data-name="Line 94" x2="23.591" transform="translate(24.878 12.192)" fill="none" stroke="#673918" stroke-miterlimit="10" stroke-width="2"/>
      <line id="Line_95" data-name="Line 95" x2="23.591" transform="translate(24.878 24.202)" fill="none" stroke="#673918" stroke-miterlimit="10" stroke-width="2"/>
      <line id="Line_96" data-name="Line 96" x2="23.591" transform="translate(24.878 36.212)" fill="none" stroke="#673918" stroke-miterlimit="10" stroke-width="2"/>
      <path id="Path_3354" data-name="Path 3354" d="M73.347,95.284c-7.334,0-7.334-5.159-14.668-5.159s-7.335,5.159-14.669,5.159-7.334-5.159-14.668-5.159-7.336,5.159-14.671,5.159S7.335,90.125,0,90.125" transform="translate(0 -43.797)" fill="none" stroke="#673918" stroke-miterlimit="10" stroke-width="2"/>
      <path id="Path_3355" data-name="Path 3355" d="M73.347,107.268c-7.334,0-7.334-5.159-14.668-5.159s-7.335,5.159-14.669,5.159-7.334-5.159-14.668-5.159-7.336,5.159-14.671,5.159S7.335,102.109,0,102.109" transform="translate(0 -49.598)" fill="none" stroke="#673918" stroke-miterlimit="10" stroke-width="2"/>
    </g>
  </g>
  <g id="Group_746" data-name="Group 746" transform="translate(9.315 -1114.33)">
    <g id="Group_622" data-name="Group 622" transform="translate(89.84 1251.245)">
      <g id="Group_603" data-name="Group 603" transform="translate(0 0)" clip-path="url(#clip-path)">
        <path id="Path_3351" data-name="Path 3351" d="M12.512,25.024A12.512,12.512,0,0,0,0,12.512,12.512,12.512,0,0,0,12.512,0,12.512,12.512,0,0,0,25.023,12.512,12.512,12.512,0,0,0,12.512,25.024Z" transform="translate(0 0)" fill="none" stroke="#673918" stroke-miterlimit="10" stroke-width="2"/>
      </g>
    </g>
    <g id="Group_621" data-name="Group 621" transform="translate(45.039 1263.757)">
      <g id="Group_603-2" data-name="Group 603" transform="translate(0 0)" clip-path="url(#clip-path-2)">
        <path id="Path_3351-2" data-name="Path 3351" d="M23.368,46.737A23.368,23.368,0,0,0,0,23.369,23.369,23.369,0,0,0,23.368,0,23.369,23.369,0,0,0,46.737,23.369,23.368,23.368,0,0,0,23.368,46.737Z" transform="translate(0 0)" fill="none" stroke="#673918" stroke-miterlimit="10" stroke-width="2"/>
      </g>
    </g>
  </g>
  <g id="Group_747" data-name="Group 747" transform="translate(58.347)">
    <g id="Group_587" data-name="Group 587" clip-path="url(#clip-path-3)">
      <path id="Path_3347" data-name="Path 3347" d="M73.6,56.74A16.863,16.863,0,1,0,56.74,73.6,16.863,16.863,0,0,0,73.6,56.74Z" transform="translate(-18.46 -18.46)" fill="none" stroke="#673918" stroke-miterlimit="10" stroke-width="2"/>
      <line id="Line_86" data-name="Line 86" y1="14.088" transform="translate(38.28 0)" fill="none" stroke="#673918" stroke-miterlimit="10" stroke-width="2"/>
      <line id="Line_87" data-name="Line 87" y1="14.088" transform="translate(38.28 62.472)" fill="none" stroke="#673918" stroke-miterlimit="10" stroke-width="2"/>
      <line id="Line_88" data-name="Line 88" x2="14.088" transform="translate(62.473 38.28)" fill="none" stroke="#673918" stroke-miterlimit="10" stroke-width="2"/>
      <line id="Line_89" data-name="Line 89" x2="14.088" transform="translate(0 38.28)" fill="none" stroke="#673918" stroke-miterlimit="10" stroke-width="2"/>
      <line id="Line_90" data-name="Line 90" x2="9.962" y2="9.962" transform="translate(55.387 55.387)" fill="none" stroke="#673918" stroke-miterlimit="10" stroke-width="2"/>
      <line id="Line_91" data-name="Line 91" x2="9.962" y2="9.962" transform="translate(11.212 11.212)" fill="none" stroke="#673918" stroke-miterlimit="10" stroke-width="2"/>
      <line id="Line_92" data-name="Line 92" x1="9.962" y2="9.962" transform="translate(11.212 55.387)" fill="none" stroke="#673918" stroke-miterlimit="10" stroke-width="2"/>
      <line id="Line_93" data-name="Line 93" x1="9.962" y2="9.962" transform="translate(55.387 11.212)" fill="none" stroke="#673918" stroke-miterlimit="10" stroke-width="2"/>
    </g>
  </g>
</svg>
