<?xml version="1.0" encoding="utf-8"?>
<!-- Generator: Adobe Illustrator 27.3.1, SVG Export Plug-In . SVG Version: 6.00 Build 0)  -->
<svg version="1.1" id="Layer_1" xmlns="http://www.w3.org/2000/svg" xmlns:xlink="http://www.w3.org/1999/xlink" x="0px" y="0px"
	 viewBox="0 0 121.9 21.1" style="enable-background:new 0 0 121.9 21.1;" xml:space="preserve">
<style type="text/css">
	.st0{fill-rule:evenodd;clip-rule:evenodd;fill:url(#SVGID_1_);}
</style>
<linearGradient id="SVGID_1_" gradientUnits="userSpaceOnUse" x1="-241.6472" y1="387.7332" x2="-240.6472" y2="387.7332" gradientTransform="matrix(120.4966 0 0 -19.9466 29118.6699 7744.4556)">
	<stop  offset="0" style="stop-color:#2A51A3"/>
	<stop  offset="1" style="stop-color:#0CBFD6"/>
</linearGradient>
<path class="st0" d="M121.4,8.5l-4.8,4.7c-0.2,0.2-0.1,0.4-0.1,0.4l1.1,6.3c0,0,0.1,0.5-0.1,0.6c-0.2,0.1-0.5,0-0.5,0l-5.8-3.1
	c-0.2-0.1-0.6,0.1-0.6,0.1l-5.6,3c-0.4,0.2-0.5,0.1-0.5,0.1c-0.2-0.2-0.1-0.4-0.1-0.4l1.1-6.4c0.1-0.3-0.1-0.5-0.1-0.5l-4.7-4.6
	c-0.2-0.2-0.2-0.3-0.2-0.3c0-0.2,0.4-0.3,0.4-0.3l6.5-1c0.3-0.1,0.3-0.2,0.3-0.2l3-6c0.2-0.3,0.2-0.2,0.4-0.2c0.2,0,0.3,0.2,0.3,0.2
	l2.8,5.8c0.2,0.4,0.6,0.4,0.6,0.4l6.5,1C121.7,8.1,121.4,8.5,121.4,8.5z M121.2,7.9C121.2,7.9,121.3,7.9,121.2,7.9
	C121.2,7.9,121.2,7.9,121.2,7.9z M121.2,7.9C121.1,7.9,120.9,7.8,121.2,7.9z M91.7,13.1c-0.2,0.2-0.1,0.4-0.1,0.4l1.1,6.3
	c0,0,0.1,0.5-0.1,0.6c-0.2,0.1-0.5,0-0.5,0l-5.8-3.1c-0.2-0.1-0.6,0.1-0.6,0.1l-5.6,3c-0.4,0.2-0.5,0.1-0.5,0.1
	c-0.2-0.2-0.1-0.4-0.1-0.4l1.1-6.4c0.1-0.3-0.1-0.5-0.1-0.5l-4.7-4.6c-0.2-0.2-0.2-0.3-0.2-0.3c0-0.2,0.4-0.3,0.4-0.3l6.5-1
	c0.3-0.1,0.3-0.2,0.3-0.2l3-6C86,0.5,86,0.5,86.2,0.5c0.2,0,0.3,0.2,0.3,0.2l2.8,5.8C89.5,7,89.9,7,89.9,7l6.5,1
	c0.5,0.2,0.1,0.5,0.1,0.5L91.7,13.1z M96.3,7.9C96.2,7.9,96,7.8,96.3,7.9z M66.8,13.1c-0.2,0.2-0.1,0.4-0.1,0.4l1.1,6.3
	c0,0,0.1,0.5-0.1,0.6c-0.2,0.1-0.5,0-0.5,0l-5.8-3.1c-0.2-0.1-0.6,0.1-0.6,0.1l-5.6,3c-0.4,0.2-0.5,0.1-0.5,0.1
	c-0.2-0.2-0.1-0.4-0.1-0.4l1.1-6.4c0.1-0.3-0.1-0.5-0.1-0.5l-4.7-4.6c-0.2-0.2-0.2-0.3-0.2-0.3c0-0.2,0.4-0.3,0.4-0.3l6.5-1
	c0.3-0.1,0.3-0.2,0.3-0.2l3-6c0.2-0.3,0.2-0.2,0.4-0.2c0.2,0,0.3,0.2,0.3,0.2l2.8,5.8C64.6,7,65,7,65,7l6.5,1
	c0.5,0.2,0.1,0.5,0.1,0.5L66.8,13.1z M71.4,7.9C71.4,7.9,71.1,7.8,71.4,7.9z M41.9,13.1c-0.2,0.2-0.1,0.4-0.1,0.4l1.1,6.3
	c0,0,0.1,0.5-0.1,0.6c-0.2,0.1-0.5,0-0.5,0l-5.8-3.1c-0.2-0.1-0.6,0.1-0.6,0.1l-5.6,3c-0.4,0.2-0.5,0.1-0.5,0.1
	c-0.2-0.2-0.1-0.4-0.1-0.4l1.1-6.4c0.1-0.3-0.1-0.5-0.1-0.5l-4.7-4.6c-0.2-0.2-0.2-0.3-0.2-0.3c0-0.2,0.4-0.3,0.4-0.3l6.5-1
	c0.3-0.1,0.3-0.2,0.3-0.2l3-6c0.2-0.3,0.2-0.2,0.4-0.2c0.2,0,0.3,0.2,0.3,0.2l2.8,5.8C39.7,7,40.1,7,40.1,7l6.5,1
	c0.5,0.2,0.1,0.5,0.1,0.5L41.9,13.1z M17,13.1c-0.2,0.2-0.1,0.4-0.1,0.4l1.1,6.3c0,0,0.1,0.5-0.1,0.6c-0.2,0.1-0.5,0-0.5,0l-5.8-3.1
	c-0.2-0.1-0.6,0.1-0.6,0.1l-5.6,3C5.1,20.6,5,20.4,5,20.4C4.9,20.3,4.9,20,4.9,20L6,13.6c0.1-0.3-0.1-0.5-0.1-0.5L1.2,8.5
	C0.9,8.3,1,8.2,1,8.2c0-0.2,0.4-0.3,0.4-0.3l6.5-1c0.3-0.1,0.3-0.2,0.3-0.2l3-6c0.2-0.3,0.2-0.2,0.4-0.2c0.2,0,0.3,0.2,0.3,0.2
	l2.8,5.8C14.8,7,15.2,7,15.2,7l6.5,1c0.5,0.2,0.1,0.5,0.1,0.5L17,13.1z M21.7,7.9c0,0-0.1,0-0.2-0.1C21.6,7.9,21.6,7.9,21.7,7.9z"/>
</svg>
