<?xml version="1.0" encoding="utf-8"?>
<!-- Generator: Adobe Illustrator 27.3.1, SVG Export Plug-In . SVG Version: 6.00 Build 0)  -->
<svg version="1.1" id="Layer_1" xmlns="http://www.w3.org/2000/svg" xmlns:xlink="http://www.w3.org/1999/xlink" x="0px" y="0px"
	 viewBox="0 0 145.814 19.909" style="enable-background:new 0 0 145.814 19.909;" xml:space="preserve">
<style type="text/css">
	.st0{fill:#FFFFFF;}
</style>
<g id="Group_591" transform="translate(720.336 -258.816)">
	<path id="Path_1" class="st0" d="M-693.594,275.53c-1.212,1.922-3.299,3.118-5.571,3.192c-1.641,0.052-3.223-0.611-4.338-1.816
		c-1.181-1.351-1.79-3.108-1.7-4.9c-0.081-1.856,0.544-3.673,1.75-5.086c1.121-1.27,2.744-1.982,4.437-1.946
		c3.673,0,5.3,2.205,5.3,5.734v0.7h-8.036c0.2,3.529,1.948,5.293,4.29,5.293c1.347-0.048,2.636-0.561,3.647-1.453L-693.594,275.53z
		 M-696.724,270.288c0-2.724-0.716-4.514-2.293-4.514c-1.307,0-2.219,1.246-2.539,2.673c-0.154,0.76-0.228,1.534-0.222,2.309v0.052
		L-696.724,270.288z"/>
	<path id="Path_2" class="st0" d="M-683.637,276.671c-0.908,1.174-2.288,1.886-3.771,1.946c-2.046,0-3.057-1.323-3.057-3.97v-8.329
		h-1.676v-0.674c1.962-0.83,3.501-2.423,4.264-4.412h0.739v3.944l3.081-0.286l-0.222,1.427h-2.859v7.866
		c0,1.764,0.469,2.62,1.652,2.62c0.574-0.016,1.138-0.158,1.652-0.415L-683.637,276.671z"/>
	<path id="Path_3" class="st0" d="M-670.501,277.138v0.389c-0.685,0.706-1.63,1.1-2.613,1.09c-1.089,0.053-2.062-0.677-2.316-1.738
		c-0.845,1.16-2.214,1.822-3.648,1.764c-1.782,0.111-3.315-1.244-3.426-3.026c-0.008-0.133-0.008-0.266,0-0.399
		c-0.054-1.216,0.524-2.374,1.528-3.062c1.161-0.763,2.532-1.144,3.92-1.09c0.479-0.012,0.958,0.021,1.43,0.1v-1.687
		c0-2.7-0.345-3.763-1.948-3.763c-0.738-0.068-1.456,0.27-1.873,0.883c0.467,0.322,0.737,0.86,0.715,1.427
		c0.07,0.903-0.606,1.691-1.508,1.76c-0.04,0.003-0.079,0.005-0.119,0.005c-0.932-0.019-1.672-0.79-1.653-1.722
		c0-0.014,0.001-0.029,0.001-0.043c0.004-0.918,0.504-1.761,1.307-2.205c0.986-0.598,2.125-0.896,3.278-0.856
		c2,0,3.328,0.415,4.043,1.246c0.793,1.058,1.178,2.366,1.084,3.684v5.818c0,1.038,0.394,1.427,1.38,1.427L-670.501,277.138z
		 M-675.627,271.923c-0.122-0.025-0.247-0.033-0.371-0.025c-2.045,0-3.13,1.141-3.13,2.932c0,1.271,0.69,2.154,1.8,2.154
		c0.688-0.005,1.331-0.344,1.725-0.908c-0.023-0.207-0.031-0.415-0.024-0.623V271.923z"/>
	<path id="Path_4" class="st0" d="M-664.414,275.192c0,1.427,0.37,2.413,1.134,2.906v0.337h-5.6v-0.337
		c0.765-0.466,1.135-1.427,1.135-2.906v-12.476c0.064-0.856-0.354-1.677-1.085-2.128v-0.337l4.413-1.428L-664.414,275.192z"/>
	<path id="Path_5" class="st0" d="M-661.456,269.172c1.158-1.323,1.38-2.646,0.32-3.581v-0.337h5.472v0.337
		c-1.762,0.828-3.358,1.971-4.708,3.374l-1.109,1.141l1.923,2.413c1.391,1.915,2.986,3.673,4.757,5.242v0.285
		c-0.539,0.43-1.211,0.66-1.9,0.649c-0.8,0.015-1.587-0.201-2.267-0.622c-0.862-0.629-1.626-1.381-2.268-2.232l-2.735-3.581
		l0.024-0.337L-661.456,269.172z"/>
	<path id="Path_6" class="st0" d="M-632.497,264.968c1.077-0.012,1.96,0.851,1.972,1.928c0,0.024,0,0.048-0.001,0.072
		c0.091,1.052-0.689,1.978-1.741,2.069c-0.053,0.005-0.106,0.007-0.159,0.007c-1.001-0.081-1.773-0.916-1.775-1.92
		c-0.841,0.239-1.58,0.75-2.1,1.453v6.616c0,1.661,0.493,2.413,1.552,2.906v0.337h-6.014v-0.337
		c0.765-0.466,1.135-1.427,1.135-2.906v-6.513c0.104-0.856-0.326-1.689-1.085-2.1v-0.335l4.413-1.453v3.053
		C-635.233,266.214-633.804,264.968-632.497,264.968z"/>
	<path id="Path_7" class="st0" d="M-618.646,276.801c-1.276,1.277-3.027,1.963-4.831,1.894c-1.728,0.068-3.404-0.602-4.609-1.842
		c-1.19-1.299-1.818-3.015-1.75-4.775c-0.074-1.863,0.57-3.684,1.8-5.086c1.26-1.375,3.067-2.117,4.93-2.024
		c1.759-0.082,3.461,0.633,4.634,1.946c1.181,1.364,1.797,3.127,1.725,4.93C-616.679,273.686-617.364,275.476-618.646,276.801z
		 M-623.182,277.865c1.8,0,2.859-2.024,2.859-5.553c0-4.022-1.134-6.513-3.081-6.513c-0.977,0.022-1.835,0.655-2.144,1.583
		c-0.5,1.199-0.744,2.489-0.715,3.788C-626.263,274.336-625.425,277.865-623.182,277.865L-623.182,277.865z"/>
	<path id="Path_8" class="st0" d="M-606.718,276.671c-0.908,1.174-2.288,1.886-3.771,1.946c-2.046,0-3.057-1.323-3.057-3.97v-8.329
		h-1.676v-0.674c1.962-0.83,3.502-2.423,4.265-4.412h0.739v3.944l3.08-0.286l-0.222,1.427h-2.858v7.866
		c0,1.764,0.468,2.62,1.651,2.62c0.574-0.016,1.138-0.158,1.652-0.415L-606.718,276.671z"/>
	<path id="Path_9" class="st0" d="M-593.927,275.53c-1.212,1.922-3.299,3.118-5.571,3.192c-1.641,0.052-3.223-0.611-4.338-1.816
		c-1.181-1.351-1.79-3.108-1.7-4.9c-0.081-1.856,0.544-3.673,1.75-5.086c1.121-1.27,2.744-1.982,4.437-1.946
		c3.672,0,5.3,2.205,5.3,5.734v0.7h-8.036c0.2,3.529,1.948,5.293,4.289,5.293c1.348-0.047,2.637-0.561,3.648-1.453L-593.927,275.53z
		 M-597.057,270.288c0-2.724-0.715-4.514-2.292-4.514c-1.307,0-2.219,1.246-2.539,2.673c-0.154,0.76-0.228,1.534-0.222,2.309v0.052
		L-597.057,270.288z"/>
	<path id="Path_10" class="st0" d="M-587.47,275.192c0,1.479,0.345,2.465,1.06,2.906v0.337h-5.522v-0.337
		c0.764-0.466,1.134-1.427,1.134-2.906v-6.513c0.104-0.856-0.326-1.689-1.085-2.1v-0.334l4.412-1.453v2.828
		c1.087-1.559,2.835-2.526,4.733-2.62c2.39,0,3.278,1.452,3.278,4.333v5.864c0,1.453,0.37,2.413,1.134,2.906v0.337h-5.5v-0.337
		c0.69-0.415,1.035-1.374,1.035-2.906v-5.423c0-1.608-0.69-2.413-2.1-2.413c-0.931,0.034-1.831,0.341-2.588,0.883L-587.47,275.192z"
		/>
	<path id="Path_11" class="st0" d="M-580.145,258.816h2.222v0.977H-578c-0.063-0.468-0.281-0.8-0.647-0.8h-0.055v1.928
		c0,0.237,0.078,0.385,0.226,0.443v0.066h-1.076v-0.066c0.141-0.058,0.21-0.205,0.21-0.443v-1.928h-0.054
		c-0.382,0-0.608,0.328-0.678,0.8h-0.07L-580.145,258.816z"/>
	<path id="Path_12" class="st0" d="M-574.536,258.885c-0.132,0.058-0.2,0.213-0.2,0.451v1.58c0,0.238,0.07,0.393,0.2,0.451v0.066
		h-1.037v-0.066c0.132-0.065,0.2-0.213,0.2-0.451v-1.5l-0.8,1.977h-0.148l-0.421-0.9l-0.515-1.091l0.063,1.3
		c0.015,0.369,0.116,0.59,0.3,0.664v0.066h-0.857v-0.066c0.187-0.074,0.288-0.3,0.3-0.664l0.039-0.821
		c0.075-0.358-0.026-0.73-0.273-1v-0.065h0.889l0.8,1.772l0.632-1.772h0.842L-574.536,258.885z"/>
	<path id="Path_13" class="st0" d="M-708.554,270.651c-1.037-0.725-2.26-1.14-3.525-1.194c1.111-0.1,2.162-0.544,3.008-1.271
		c0.828-0.733,1.281-1.802,1.232-2.907c0-2.7-2.144-4.333-5.669-4.333h-6.827v0.337c0.689,0.441,1.034,1.349,1.034,2.724v11.183
		c0,1.531-0.345,2.491-1.035,2.906v0.337h6.531c4.462,0,6.68-1.609,6.68-4.826C-707.069,272.443-707.607,271.33-708.554,270.651z
		 M-714.913,261.751c2.1,0,3.18,0.934,3.18,3.71c0,2.206-1.035,3.4-3.081,3.581l-0.936,0.078v-7.369H-714.913z M-709.291,272.565
		c-2.043,0.925-1.438,2.288-2.885,3.174c-0.635,0.344-1.377,0.435-2.077,0.255c-0.919-0.21-1.868,0.197-2.35,1.006l-0.026,0.046
		c-0.157,0.286-0.743-0.077-0.621-0.32c1.1-2.183,3.783-3.459,5.249-4.018l-0.081-0.322c-1.696,0.132-3.289,0.87-4.485,2.08
		c-0.123-1.278,0.566-2.497,1.725-3.05C-712.483,270.241-708.815,272.35-709.291,272.565L-709.291,272.565z"/>
	<path id="Path_14" class="st0" d="M-642.38,277.138v0.389c-0.685,0.706-1.63,1.1-2.613,1.09c-1.089,0.053-2.062-0.677-2.316-1.738
		c-0.846,1.16-2.214,1.822-3.649,1.764c-1.781,0.111-3.315-1.243-3.426-3.023c-0.008-0.134-0.008-0.268,0-0.401
		c-0.054-1.216,0.524-2.374,1.528-3.062c1.161-0.763,2.531-1.144,3.919-1.09c0.479-0.012,0.958,0.021,1.43,0.1v-1.687
		c0-2.7-0.345-3.763-1.947-3.763c-0.739-0.069-1.456,0.27-1.873,0.883c0.467,0.322,0.736,0.86,0.714,1.427
		c0.07,0.903-0.606,1.691-1.508,1.76c-0.039,0.003-0.079,0.005-0.118,0.005c-0.932-0.019-1.672-0.79-1.653-1.722
		c0-0.014,0.001-0.029,0.001-0.043c0.004-0.918,0.504-1.761,1.307-2.205c0.986-0.599,2.125-0.896,3.278-0.856
		c2,0,3.328,0.415,4.043,1.246c0.792,1.058,1.177,2.366,1.084,3.684v5.818c0,1.038,0.394,1.427,1.379,1.427L-642.38,277.138z
		 M-647.507,271.923c-0.122-0.025-0.246-0.033-0.37-0.025c-2.046,0-3.13,1.141-3.13,2.932c0,1.271,0.69,2.154,1.8,2.154
		c0.688-0.005,1.331-0.344,1.725-0.908c-0.024-0.207-0.033-0.415-0.025-0.623L-647.507,271.923z"/>
</g>
</svg>
