<?xml version="1.0" encoding="utf-8"?>
<!-- Generator: Adobe Illustrator 24.3.0, SVG Export Plug-In . SVG Version: 6.00 Build 0)  -->
<svg version="1.1" id="Layer_1" xmlns="http://www.w3.org/2000/svg" xmlns:xlink="http://www.w3.org/1999/xlink" x="0px" y="0px"
	 viewBox="0 0 171.953 23.478" style="enable-background:new 0 0 171.953 23.478;" xml:space="preserve">
<style type="text/css">
	.st0{fill:#FFFFFF;}
</style>
<g id="Group_23" transform="translate(-373.5 -3272.313)">
	<path id="Path_1" class="st0" d="M405.037,3292.024c-1.43,2.267-3.891,3.677-6.57,3.764c-1.935,0.061-3.802-0.72-5.116-2.142
		c-1.394-1.594-2.114-3.669-2.006-5.784c-0.096-2.189,0.642-4.333,2.064-6c1.322-1.498,3.236-2.337,5.233-2.295
		c4.332,0,6.25,2.6,6.25,6.763v0.826h-9.477c0.233,4.162,2.3,6.243,5.059,6.243c1.589-0.056,3.108-0.662,4.3-1.714L405.037,3292.024
		z M401.346,3285.842c0-3.213-0.844-5.324-2.7-5.324c-1.541,0-2.617,1.469-2.994,3.152c-0.181,0.896-0.269,1.809-0.262,2.723v0.061
		L401.346,3285.842z"/>
	<path id="Path_2" class="st0" d="M416.782,3293.37c-1.07,1.384-2.697,2.223-4.445,2.295c-2.413,0-3.6-1.56-3.6-4.682v-9.823h-1.977
		v-0.795c2.313-0.978,4.129-2.855,5.029-5.2h0.872v4.648l3.634-0.337l-0.262,1.683h-3.372v9.273c0,2.08,0.553,3.09,1.948,3.09
		c0.677-0.019,1.342-0.186,1.948-0.489L416.782,3293.37z"/>
	<path id="Path_3" class="st0" d="M432.275,3293.921v0.459c-0.808,0.832-1.922,1.297-3.082,1.285
		c-1.285,0.062-2.433-0.799-2.732-2.05c-0.997,1.367-2.609,2.148-4.3,2.081c-2.101,0.131-3.91-1.466-4.041-3.566
		c-0.01-0.157-0.01-0.315,0-0.473c-0.064-1.434,0.616-2.799,1.8-3.611c1.369-0.9,2.986-1.35,4.623-1.286
		c0.565-0.013,1.129,0.029,1.686,0.123v-1.989c0-3.183-0.407-4.438-2.3-4.438c-0.871-0.082-1.717,0.317-2.209,1.041
		c0.551,0.38,0.869,1.015,0.843,1.683c0.082,1.064-0.715,1.994-1.779,2.075c-0.047,0.003-0.093,0.005-0.14,0.006
		c-1.099-0.023-1.972-0.932-1.95-2.031c0-0.017,0.001-0.033,0.002-0.05c0.005-1.082,0.594-2.076,1.541-2.6
		c1.163-0.706,2.506-1.057,3.866-1.01c2.355,0,3.925,0.49,4.768,1.469c0.935,1.247,1.389,2.79,1.279,4.345v6.855
		c0,1.224,0.465,1.683,1.628,1.683L432.275,3293.921z M426.229,3287.77c-0.144-0.03-0.291-0.04-0.437-0.03
		c-2.412,0-3.691,1.346-3.691,3.458c0,1.5,0.814,2.54,2.122,2.54c0.812-0.006,1.57-0.405,2.034-1.071
		c-0.027-0.244-0.037-0.49-0.028-0.735V3287.77z"/>
	<path id="Path_4" class="st0" d="M439.453,3291.626c0,1.683,0.436,2.846,1.338,3.427v0.4h-6.6v-0.4
		c0.9-0.55,1.338-1.683,1.338-3.427v-14.719c0.074-1.01-0.419-1.977-1.28-2.51v-0.4l5.2-1.684L439.453,3291.626z"/>
	<path id="Path_5" class="st0" d="M442.937,3284.526c1.366-1.56,1.628-3.121,0.377-4.223v-0.4h6.454v0.4
		c-2.078,0.976-3.961,2.325-5.553,3.979l-1.308,1.346l2.268,2.846c1.64,2.258,3.521,4.331,5.61,6.182v0.336
		c-0.635,0.507-1.426,0.778-2.238,0.765c-0.943,0.018-1.872-0.237-2.674-0.734c-1.016-0.741-1.917-1.628-2.675-2.632l-3.226-4.223
		l0.028-0.4L442.937,3284.526z"/>
	<path id="Path_6" class="st0" d="M477.095,3279.569c1.27-0.014,2.311,1.004,2.326,2.274c0,0.027,0,0.054-0.001,0.082
		c0.107,1.241-0.813,2.333-2.054,2.44c-0.061,0.005-0.123,0.008-0.184,0.008c-1.18-0.096-2.09-1.08-2.093-2.264
		c-0.99,0.283-1.859,0.886-2.471,1.714v7.8c0,1.959,0.582,2.846,1.831,3.427v0.4h-7.093v-0.4c0.9-0.55,1.338-1.683,1.338-3.427
		v-7.681c0.123-1.011-0.385-1.994-1.28-2.479v-0.4l5.2-1.714v3.611C473.868,3281.038,475.554,3279.569,477.095,3279.569z"/>
	<path id="Path_7" class="st0" d="M493.431,3293.523c-1.506,1.507-3.572,2.316-5.7,2.234c-2.038,0.08-4.014-0.709-5.436-2.172
		c-1.403-1.532-2.145-3.555-2.064-5.631c-0.088-2.198,0.672-4.346,2.122-6c1.486-1.622,3.617-2.497,5.814-2.387
		c2.074-0.096,4.081,0.747,5.465,2.295c1.393,1.609,2.12,3.688,2.035,5.814C495.749,3289.848,494.941,3291.96,493.431,3293.523z
		 M488.082,3294.778c2.122,0,3.372-2.387,3.372-6.549c0-4.743-1.337-7.681-3.634-7.681c-1.153,0.026-2.165,0.773-2.529,1.867
		c-0.59,1.414-0.877,2.936-0.843,4.468C484.448,3290.613,485.437,3294.778,488.082,3294.778z"/>
	<path id="Path_8" class="st0" d="M507.498,3293.37c-1.071,1.384-2.699,2.224-4.447,2.295c-2.413,0-3.6-1.56-3.6-4.682v-9.823
		h-1.977v-0.795c2.313-0.978,4.129-2.855,5.03-5.2h0.872v4.648l3.633-0.337l-0.262,1.683h-3.371v9.273c0,2.08,0.552,3.09,1.947,3.09
		c0.677-0.019,1.342-0.186,1.948-0.489L507.498,3293.37z"/>
	<path id="Path_9" class="st0" d="M522.584,3292.024c-1.43,2.267-3.891,3.677-6.57,3.764c-1.935,0.061-3.802-0.721-5.116-2.142
		c-1.394-1.594-2.114-3.669-2.006-5.784c-0.096-2.189,0.642-4.333,2.064-6c1.322-1.498,3.236-2.337,5.233-2.295
		c4.331,0,6.25,2.6,6.25,6.763v0.826h-9.477c0.233,4.162,2.3,6.243,5.058,6.243c1.589-0.056,3.108-0.662,4.3-1.714L522.584,3292.024
		z M518.892,3285.842c0-3.213-0.843-5.324-2.7-5.324c-1.541,0-2.617,1.469-2.994,3.152c-0.181,0.896-0.269,1.809-0.262,2.723v0.061
		L518.892,3285.842z"/>
	<path id="Path_10" class="st0" d="M530.199,3291.626c0,1.744,0.407,2.907,1.25,3.427v0.4h-6.512v-0.4
		c0.9-0.55,1.337-1.683,1.337-3.427v-7.681c0.123-1.011-0.384-1.994-1.279-2.479v-0.4l5.2-1.714v3.335
		c1.282-1.838,3.343-2.979,5.582-3.09c2.819,0,3.866,1.713,3.866,5.11v6.916c0,1.714,0.436,2.846,1.337,3.427v0.4h-6.482v-0.4
		c0.814-0.489,1.221-1.621,1.221-3.427v-6.4c0-1.9-0.814-2.846-2.472-2.846c-1.097,0.04-2.159,0.402-3.052,1.041L530.199,3291.626z"
		/>
	<path id="Path_11" class="st0" d="M538.837,3272.313h2.62v1.152h-0.091c-0.074-0.552-0.331-0.939-0.763-0.939h-0.065v2.274
		c0,0.28,0.092,0.454,0.267,0.522v0.078h-1.268v-0.078c0.166-0.068,0.248-0.242,0.248-0.522v-2.274h-0.064
		c-0.45,0-0.717,0.387-0.8,0.939h-0.083L538.837,3272.313z"/>
	<path id="Path_12" class="st0" d="M545.453,3272.394c-0.156,0.068-0.239,0.251-0.239,0.532v1.867c0,0.281,0.083,0.464,0.239,0.532
		v0.078h-1.223v-0.078c0.156-0.077,0.23-0.251,0.23-0.532v-1.771l-0.947,2.332h-0.176l-0.5-1.064l-0.607-1.287l0.074,1.539
		c0.018,0.435,0.137,0.7,0.349,0.783v0.078h-1.011v-0.078c0.22-0.087,0.34-0.348,0.358-0.783l0.046-0.968
		c0.089-0.422-0.031-0.861-0.322-1.18v-0.081h1.048l0.938,2.09l0.745-2.09h0.993L545.453,3272.394z"/>
	<path id="Path_13" class="st0" d="M387.396,3286.271c-1.223-0.855-2.666-1.344-4.157-1.408c1.31-0.119,2.55-0.643,3.547-1.5
		c0.977-0.865,1.511-2.125,1.453-3.428c0-3.182-2.529-5.11-6.686-5.11h-8.052v0.4c0.813,0.52,1.219,1.591,1.22,3.213v13.189
		c0,1.806-0.407,2.938-1.221,3.427v0.4h7.7c5.262,0,7.878-1.9,7.878-5.692C389.146,3288.388,388.513,3287.074,387.396,3286.271z
		 M379.896,3275.771c2.471,0,3.75,1.1,3.75,4.376c0,2.6-1.221,4.009-3.634,4.223l-1.1,0.092v-8.691H379.896z M386.526,3288.525
		c-2.41,1.091-1.7,2.7-3.4,3.743c-0.749,0.406-1.625,0.513-2.45,0.3c-1.084-0.247-2.203,0.232-2.772,1.187l-0.03,0.054
		c-0.185,0.337-0.876-0.091-0.732-0.378c1.3-2.575,4.461-4.08,6.19-4.739l-0.1-0.38c-2.001,0.155-3.878,1.026-5.289,2.453
		c-0.147-1.509,0.666-2.948,2.035-3.6c2.785-1.378,7.111,1.109,6.548,1.363V3288.525z"/>
	<path id="Path_14" class="st0" d="M465.437,3293.921v0.459c-0.808,0.832-1.922,1.297-3.082,1.285
		c-1.285,0.062-2.433-0.799-2.732-2.05c-0.997,1.367-2.609,2.148-4.3,2.081c-2.101,0.13-3.909-1.467-4.04-3.567
		c-0.01-0.157-0.01-0.315,0-0.472c-0.064-1.434,0.616-2.799,1.8-3.611c1.369-0.9,2.985-1.35,4.622-1.286
		c0.565-0.013,1.129,0.029,1.686,0.123v-1.989c0-3.183-0.407-4.438-2.3-4.438c-0.871-0.082-1.717,0.317-2.209,1.041
		c0.55,0.38,0.868,1.015,0.842,1.683c0.082,1.064-0.715,1.994-1.779,2.075c-0.046,0.003-0.092,0.005-0.139,0.006
		c-1.099-0.023-1.972-0.932-1.95-2.031c0-0.017,0.001-0.033,0.002-0.05c0.005-1.082,0.594-2.076,1.541-2.6
		c1.163-0.706,2.506-1.057,3.866-1.01c2.355,0,3.925,0.49,4.768,1.469c0.935,1.247,1.389,2.79,1.279,4.345v6.855
		c0,1.224,0.465,1.683,1.627,1.683L465.437,3293.921z M459.39,3287.77c-0.143-0.03-0.29-0.04-0.436-0.03
		c-2.413,0-3.692,1.346-3.692,3.458c0,1.5,0.814,2.54,2.123,2.54c0.812-0.006,1.57-0.405,2.034-1.071
		c-0.028-0.244-0.038-0.49-0.029-0.735V3287.77z"/>
</g>
</svg>
