<?xml version="1.0" encoding="utf-8"?>
<!-- Generator: Adobe Illustrator 27.3.1, SVG Export Plug-In . SVG Version: 6.00 Build 0)  -->
<svg version="1.1" id="Layer_1" xmlns="http://www.w3.org/2000/svg" xmlns:xlink="http://www.w3.org/1999/xlink" x="0px" y="0px"
	 viewBox="0 0 139.2 117" style="enable-background:new 0 0 139.2 117;" xml:space="preserve">
<style type="text/css">
	.st0{fill-rule:evenodd;clip-rule:evenodd;fill:#DBE3ED;}
</style>
<path class="st0" d="M10.1,112.2h51.6V63.3H36.5v-5.9c0-17.9,7-26.8,20.9-26.8V5.8c-18.1,0-31.9,5.5-41.4,16.4
	C6.5,33.1,1.8,47.4,1.8,65.3C1.8,80.8,4.6,96.4,10.1,112.2L10.1,112.2z M84.6,112.2h51.6V63.3h-24.8v-5.9c0-17.9,6.8-26.8,20.5-26.8
	V5.8c-18.1,0-31.9,5.5-41.2,16.4c-9.3,10.9-14,25.3-14,43.1C76.7,80.5,79.3,96.2,84.6,112.2L84.6,112.2z"/>
</svg>
